/* XPM */
static char *relay[] = {
/* columns rows colors chars-per-pixel */
"49 49 90 1 ",
"  c black",
". c #040000",
"X c #070707",
"o c #080101",
"O c #0F0202",
"+ c #090909",
"@ c #0E0E0E",
"# c #1B0304",
"$ c #101010",
"% c gray7",
"& c #131313",
"* c #181818",
"= c gray10",
"- c #1E1E1E",
"; c gray12",
": c #2C0606",
"> c gray15",
", c #282828",
"< c #2D2D2D",
"1 c #2F2F2E",
"2 c gray19",
"3 c #343434",
"4 c #3E3E3D",
"5 c #3F3F3F",
"6 c #530B0C",
"7 c #5D0C0D",
"8 c #730F11",
"9 c #503839",
"0 c #614506",
"q c #774E0A",
"w c #494539",
"e c #434242",
"r c #434343",
"t c gray27",
"y c #484848",
"u c #515151",
"i c gray36",
"p c #6D4D4D",
"a c #616262",
"s c gray40",
"d c #6A6A6A",
"f c gray43",
"g c #75736E",
"h c #727272",
"j c gray45",
"k c #7F7D79",
"l c #801012",
"z c #D70109",
"x c #D50209",
"c c #D60209",
"v c #D70209",
"b c #936B07",
"n c #936E07",
"m c #956E0C",
"M c #79B342",
"N c #7AB443",
"B c #7AB543",
"V c #7BB543",
"C c #7BB643",
"Z c #B79309",
"A c #0074BC",
"S c #0074BD",
"D c #0075BD",
"F c #0075BE",
"G c #828484",
"H c #8B8B8B",
"J c #939393",
"K c #A0A0A0",
"L c gray65",
"P c #A9A9A8",
"I c #A9A9A9",
"U c #ABAAAA",
"Y c gray73",
"T c gray",
"R c #C3C3C3",
"E c gray77",
"W c #C6C6C6",
"Q c #C8C8C8",
"! c #CECDCD",
"~ c #D8D8D8",
"^ c #E1E1E1",
"/ c gray93",
"( c #EFEFEF",
") c #F3F3F3",
"_ c gray97",
"` c #FBFBFB",
"' c gray99",
"] c #FEFEFE",
"[ c white",
"{ c #B0E0E6",
/* pixels */
"{{{{{{{{{{{{{{{{{{{{{{{{{{{{{{{{{{{{{{{{{{{{{{{{{",
"{{{{{{{{{{{{{{{{{{{{{{{{{{{{{{{{{{{{{{{{{{{{{{{{{",
"{{{{{{{{{{{{{{{{{{{{{{{{{{{{{{{{{{{{x{{{{{{{{{{{{",
"{{{{{{{{{{{{{{{{{{{{{{{{{{{{{{{{{{{c{{{{{{{{{{{{{",
"{{{{{{{{{{{{{{{{{{{{{{{{{{{{{{{{{{z{{{{{{{{{{{{{{",
"{{{{{{{{{{{{{{{{{{{{{{{{{{{{{{{{{cv{{{{{{{{{{{{{{",
"{{{{{{{{{{{{{{{{{{{{{{{{{{{{{{{{{zv{{A{{{{{{{{{{{",
"{{{{{{{{{{{{{{{{{{{{{{{{{{{{{{{{{{v{{S{{{{{{{{{M{",
"{{{{{{{{{{{{{{{{{{{{{{{X%+{{{{{{{{{{{F{{{{{{{{BN{",
"{{{{{{{{{{{{{{{{{{{{{{eKRIuX{{{{{{{{{D{{{{NBBCV{{",
"{{{{{{{{{{{{{{{{{{{{{t^[[[/i{{{{{{{{{AF{{{{{{{{{{",
"{{{{{{{{{{{{{{{{{{{{+P[]]][E*{{{{{{{{{DDA{{{{{{{{",
"{{{{{{{{{{{{{{{{{{{{=![]]`UW2{{{{{{{{{{{{{{{{{{{{",
"{{{{{{{{{{{{{{{{{{{{$Y[]]'RQ,{{{{{{{{{{{{{{{{{{{{",
"{{{{{{{{{{{{{{{{{{{{{s_[]][T;{{{{{{{{{{{{{{{{{{{{",
"{{{{{{{{{{{{{{{{{{{{{@j~)(L>{{{{{{{{{{{{{{{{{{{{{",
"{{{{{{{{{{{{{{{{{{{{{{{-54&{{{bq{{{{{{{{{{{{{{{{{",
"{{{{{{{{{{{{{{{{{{{{{{{  {{{0nZm{{{{{{{{{{{{{{{{{",
"{{{{{{{{{{{{{{{{{{{{{{   {{{{wkg{{{{{{{{{{{{{{{{{",
"{{{{{{{{{{{{{{{{{{{{{{   {{{{<fi{{{{{{{{{{{{{{{{{",
"{{{{{{{{{{{{{{{{{{{{{    {{{{{Jh{{{{{{{{{{{{{{{{{",
"{{{{{{{{{{{{{{{          {{{{{Hd{{{{{{{{{{{{{{{{{",
"{{{{{{{{{{{{{{{         {{{{{{Ga{{{{{{{{{{{{{{{{{",
"{{{{{{{{{{{{{{{{{       {{{{{{p9{{{{{{{{{{{{{{{{{",
"{{{{{{{{{{{{{{{{{       {{{{{{l7{{{{{{{{{{{{{{{{{",
"{{{{{{{{{{{{{{{{{       {{{{{{86{{{{{{{{{{{{{{{{{",
"{{{{{{{{{{{{{{{{{   {         #O{{{{{{{{{{{{{{{{{",
"{{{{{{{{{{{{{{{{{    31       o.{{{{{{{{{{{{{{{{{",
"{{{{{{{{{{{{{{{{{    ry    {{{:{{{{{{{{{{{{{{{{{{",
"{{{{{{{{{{{{{{{{    {{{{    {{{{{{{{{{{{{{{{{{{{{",
"{{{{{{{{{{{{{{{   {{{{{{{{       {{{{{{{{{{{{{{{{",
"{{{{{{{{{{{{{{   {{{{{{{{{{       {{{{{{{{{{{{{{{",
"{{{{{{{{{{{{{   {{{{{{{{{{{{      {{{{{{{{{{{{{{{",
"{{{{{{{{{{{{{  {{{{{{{{{{{{{{      {{{{{{{{{{{{{{",
"{{{{{{{{{{{{{  {{{{{{{{{{{{{{  {   {{{{{{{{{{{{{{",
"{{{{{{{{{{{{{  {{{{{{  {{{{{{  {   {{{{{{{{{{{{{{",
"{{{{{{{{{{{{  {{{{{{    {{{{{  {   {{{{{{{{{{{{{{",
"{{{{{{{{{{{{  {{{{{{{  {{{{{{  {{   {{{{{{{{{{{{{",
"{{{{{{{{{{{{{  {{{{{{{{{{{{{{  {{   {{{{{{{{{{{{{",
"{{{{{{{{{{{{{  {{{{{{{{{{{{{{  {{     {{{{{{{{{{{",
"{{{{{{{{{{{{{  {{{{{{{{{{{{{   {{     {{{{{{{{{{{",
"{{{{{{{{{{{{{{  {{{{{{{{{{{{  {{{{    {{{{{{{{{{{",
"{{{{{{{{{{{{{{   {{{{{{{{{{  {{{{{{{{{{{{{{{{{{{{",
"{{{{{{{{{{{{{{{    {{{{{{    {{{{{{{{{{{{{{{{{{{{",
"{{{{{{{{{{{{{{{{{          {{{{{{{{{{{{{{{{{{{{{{",
"{{{{{{{{{{{{{{{{{{        {{{{{{{{{{{{{{{{{{{{{{{",
"{{{{{{{{{{{{{{{{{{{{{{{{{{{{{{{{{{{{{{{{{{{{{{{{{",
"{{{{{{{{{{{{{{{{{{{{{{{{{{{{{{{{{{{{{{{{{{{{{{{{{",
"{{{{{{{{{{{{{{{{{{{{{{{{{{{{{{{{{{{{{{{{{{{{{{{{{"
};
