/* XPM */
static char *cauldron[] = {
/* columns rows colors chars-per-pixel */
"49 49 214 2 ",
"   c #030100",
".  c #0B0301",
"X  c #0F0901",
"o  c #120502",
"O  c #1A0F03",
"+  c #170D03",
"@  c #1C1C1C",
"#  c #141313",
"$  c #1F1103",
"%  c #2D0D06",
"&  c #380B07",
"*  c #231902",
"=  c #381507",
"-  c #2A1515",
";  c #3B2207",
":  c #392903",
">  c #2C2C2C",
",  c #272727",
"<  c #3D3D3C",
"1  c #333332",
"2  c #5A0C0D",
"3  c #421409",
"4  c #4C170A",
"5  c #5E1C0D",
"6  c #781012",
"7  c #641F17",
"8  c #422507",
"9  c #442608",
"0  c #4C2B09",
"q  c #462808",
"w  c #512E0A",
"e  c #483503",
"r  c #5B3709",
"t  c #60370B",
"y  c #64390B",
"u  c #6B3D0C",
"i  c #6D210F",
"p  c #781F20",
"a  c #523930",
"s  c #7C3838",
"d  c #6A2727",
"f  c #5A4802",
"g  c #6A4708",
"h  c #76470C",
"j  c #7B5509",
"k  c #714D17",
"l  c #736100",
"z  c #49473A",
"x  c #71672F",
"c  c #6F6738",
"v  c #756A28",
"b  c #434241",
"n  c #4C4C4C",
"m  c #545453",
"M  c #5C5B5B",
"N  c #585757",
"B  c #665D5B",
"V  c #775251",
"C  c #6E6953",
"Z  c #626262",
"A  c #6B6B6B",
"S  c #686566",
"D  c #746C68",
"F  c #777663",
"G  c #737272",
"H  c #7B7A79",
"J  c #697377",
"K  c #961517",
"L  c #8D1315",
"P  c #AB191B",
"I  c #B7191C",
"U  c #B8391A",
"Y  c #8D2325",
"T  c #B6292B",
"R  c #C4181C",
"E  c #D31C1F",
"W  c #E71E22",
"Q  c #F11F23",
"!  c #C52124",
"~  c #F02024",
"^  c #814A0F",
"/  c #8D590D",
"(  c #8B4E11",
")  c #854C10",
"_  c #8E5111",
"`  c #9D5913",
"'  c #945412",
"]  c #955C0F",
"[  c #A35D13",
"{  c #856306",
"}  c #977405",
"|  c #946F07",
" . c #B5790E",
".. c #AB6114",
"X. c #BC6B16",
"o. c #B36715",
"O. c #BA7611",
"+. c #A7710C",
"@. c #8E5B27",
"#. c #906B21",
"$. c #C26E17",
"%. c #CC7418",
"&. c #C47415",
"*. c #D17719",
"=. c #D67A1A",
"-. c #DC7C1A",
";. c #E07F1B",
":. c #865856",
">. c #844A49",
",. c #876B68",
"<. c #847C79",
"1. c #8E726E",
"2. c #768D75",
"3. c #9B8505",
"4. c #AA8B03",
"5. c #B48B05",
"6. c #B79802",
"7. c #AB9200",
"8. c #BDA200",
"9. c #E4811C",
"0. c #EA851C",
"q. c #EF881D",
"w. c #F58C1D",
"e. c #F98E1E",
"r. c #FD901E",
"t. c #C2A301",
"y. c #C9AB00",
"u. c #D7B600",
"i. c #CEB000",
"p. c #E4C300",
"a. c #EDCB00",
"s. c #E8C800",
"d. c #F1CF00",
"f. c #F3D100",
"g. c #FDDA00",
"h. c #FAD700",
"j. c #FFE200",
"k. c #BDAE5A",
"l. c #81807F",
"z. c #A59D6E",
"x. c #80A267",
"c. c #C6B86A",
"v. c #848484",
"b. c #8D8C8C",
"n. c #8A8685",
"m. c #978D89",
"M. c #948D85",
"N. c #96928D",
"B. c #949494",
"V. c #9B9B9B",
"C. c #9F9692",
"Z. c #A39A96",
"A. c #A79C97",
"S. c #B39A96",
"D. c #9BBD99",
"F. c #ACA19D",
"G. c #B3B78E",
"H. c #A4A4A4",
"J. c #A9AAA9",
"K. c #B2A6A2",
"L. c #BAAFAA",
"P. c #B4A9A4",
"I. c #BEB2AD",
"U. c #B3B3B3",
"Y. c #BCBCBC",
"T. c #BAB6B3",
"R. c #D59788",
"E. c #EA9D9D",
"W. c #C0B4AF",
"Q. c #C5B9B4",
"!. c #CBBEB9",
"~. c #EAA8A8",
"^. c #ECB6B7",
"/. c #AECB9A",
"(. c #B7DBB5",
"). c #ADCEA6",
"_. c #F4E697",
"`. c #CFC2BC",
"'. c #C5DBAD",
"]. c #E4E2A9",
"[. c #EEE7BB",
"{. c #F1E9BB",
"}. c #B5C9CE",
"|. c #AADAEB",
" X c #A6D7E9",
".X c #B6DAE8",
"XX c #C1C1C1",
"oX c gray80",
"OX c #C7C7C8",
"+X c #D9CCC6",
"@X c #D9CCC7",
"#X c #D5D5D5",
"$X c #DCDCDD",
"%X c #D6D7DA",
"&X c #D2D5CD",
"*X c #EAC6C7",
"=X c #E3D4D5",
"-X c #EAD9D5",
";X c #C9E1C7",
":X c #D8E4D8",
">X c #ECE4D7",
",X c #F5E5DE",
"<X c #F0ECD7",
"1X c #EEE8C2",
"2X c #DCDEE0",
"3X c #C5E1EC",
"4X c #DDE7EA",
"5X c #DDE4E7",
"6X c #E2E2E2",
"7X c #EBEBEB",
"8X c #E8E8E6",
"9X c #F6E6E0",
"0X c #F9E9E2",
"qX c #FF9999",
/* pixels */
"qXqXqXqXqXqXqXqXqXqXqXqXqXqXqXqXqXqXqXqXqXqXqXqXqXqXqXqXqXqXqXqXqXqXqXqXqXqXqXqXqXqXqXqXqXqXqXqXqX",
"qXqXqXqXqXqXqXqXqXqXqXqXqXqXqXqXqXqXqXqXqXqXqXqXqXqXqXqXqXqXqXqXO qXqXqXqXqXqXqXqXqXqXqXqXqXqXqXqX",
"qXqXqXqXqXqXqXqXqXqXqXqXqXqXqXqXqXqXqXqXqXqXqXqXqXqXqXqXqXqXqX9 ; qXqXqXqXqXqXqXqXqXqXqXqXqXqXqXqX",
"qXqXqXqXqXqXqXqXqXqXqXqXqXqXqXqXqXqXqXqXqXqXqXqXqXqXqXqXqXqXqX8 ; qXqXqXqXqXqXqXqXqXqXqXqXqXqXqXqX",
"qXqXqXqXqXqXqXqXqXqXqXqXqXqXqXqXqXqXqXqXqXqXqXqXqXqXqXqXqXqXqX8 w qXqX. . qXqXqXqXqXqXqXqXqXqXqXqX",
"qXqXqXqXqXqXqXqXqXqXqXqXqXqXqXqXqXqXqXqXqXqXqXqX  qXqXqXqX  qXq _ qXqX% % qXqXqXqXqXqXqXqXqXqXqXqX",
"qXqXqXqXqXqXqXqXqXqXqXqXqXqXqXqXqXqXqXqXqXqXqX. qXqXqXqXqXX qX9 =.) qXqXqXqX. qXqXqXqXqXqXqXqXqXqX",
"qXqXqXqXqXqXqXqXqXqXqXqXqXqXqXqXqXqXqXqXqXqXo . qXqXqXqXu ; qXr 0.q.( qXqX= u qXqXqXqXqXqXqXqXqXqX",
"qXqXqXqXqXqXqXqXqXqXqXqXqXqXqXqXqXqXqXqXqXqXi + qXqXqX` ..qXqX` w.e.0.r qXqXo.0 qXqXqXqXqXqXqXqXqX",
"qXqXqXqXqXqXqXqXqXqXqXqXqXqXqX. qXqXqXqXqX3 U = qXqX` w.^ qXu 0.e.w.e...qX; =.( qXqXqXqXqXqXqXqXqX",
"qXqXqXqXqXqXqXqXqXqXqXqXqXqXqX= 3 qXqXqXqX3 U = qXw 9.w.h O $.e.e.w.e.%.O u q...qXqX. qXqXqXqXqXqX",
"qXqXqXqXqXqXqXqXqXqXqXqXqXqXqXqXi 5 qXqXqXqX3 qXqXy w.w.h 9 q.%.*.w.e.X.* o.r.o.qXqX4 3 qXqXqXqXqX",
"qXqXqXqXqXqXqXqXqXqXqXqXqXqXqXqXo 4 % qXqXqXqXqXqX9 =.r.%.u e.[ y w.r.' ^ w.r.' qXqX= % qXqXqXqXqX",
"qXqXqXqXqXqXqXqXqXqXqXqXqXqXqXqXO 9 O qXqXqXqXqXqXqX` w.e.;.w.' r 9.9.9.q.e.;.w qXqXqXqXqXqXqXqXqX",
"qXqXqXqXqXqXqXqXqXqXqXqXqXqXqXqXqXt [ y w 0 qXqXqXqXt w.r.w.e./ g ..0 -.e.e.[ qXqXqXqXqXqXqXqXqXqX",
"qXqXqXqXqXqXqXqXqXqXqXqXqXqXqXqXqXqXt h h ] [ ` ( u w ..9.r.=.j f j f *.e.w.h qXqX  qXqXqXqXqXqXqX",
"qXqXqXqXqXqXqXqXqXqXqXqXqXqXqXqXqXqXqXqXu { 5.5.5.$.o.[ _ ..` 6.8.t.f ( w.w.u qXq r qXqXqXqXqXqXqX",
"qXqXqXqXqXqXqXqXqXqXqXqXqXqXqXqXqXqXqXqXqX9 g 4.i.u.u.6.o...y 8.j.3.: h w.w.) * $.$.qXqXqXqXqXqXqX",
"qXqXqXqXqXqXqXqXqXqXqXqXqXqXqXqXqXqXqXqXqXqXqX9 h +.t.h.p.5.X.} f.i.6.j ;.r.X.u w.q.y qXqXqXqXqXqX",
"qXqXqXqXqXqXqXqXqXqXqXqXqXqXqXqXqXqXqXqXqXqXqXqX. ( O.a.g.u.&.o.8.j.j.l q X.q.-.w.e.( qXqXqXqXqXqX",
"qXqXqXqXqXqXqXqXqXqXqXqXqXqXqXqXqXqXqXqXqXqXS V.Z k 5.j.h.d. .-.} g.g.3.* y 9.e.e.0.y qXqXqXqXqXqX",
"qXqXqXqXqXqXqXqXqXqXqXqXqXqXqXqXqXqXqXqXqXZ Y.XX}.M.v a.g.a.O.9.} h.g.f.} j q.w.e.X.qXqXqXqXqXqXqX",
"qXqXqXqXqXqXqXqXqXqXqXqXqXqXqXqXqXqXqXqX1 v.H U.`.}.V.v a.6.=.X.7.j.h.f.f h ` 0.e.*.= qXqXqXqXqXqX",
"qXqXqXqXqXqXqXqXqXqXqXqXqXqXqXqX1 Z n.J.G m m M H.!.OXN.k &.X.} a.h.g.f.8.f e &.e.w.k S Z < # qXqX",
"qXqXqXqXqXqXqXqXqXqXqXqXqXqXqXG #X7X7X2XH B.U.Z n J.XX}.D j 4.a.h.h.g.g.s.7.8.] e.e.#.U.$XoXV.> qX",
"qXqXqXqXqXqXqXqXqXqXqXqXqXqXqXn V.OX%Xl.B.XXXXT.B Z U.XXZ.3.g.g.h.h.g.h.g.g.a./ e.e.@.U.OXJ.G @ qX",
"qXqXqXqXqXqXqXqXqXqXqXqXqXqXqXS B.S n b.XXXX!.XXJ.N v.Y.D 6.f.d.d.a.a.s.p.p.8.g [ ' a Z A v.v.@ qX",
"qXqXqXqXqXqXqXqXqXqXqXqXqXqXqXn $Xb.v.XXXXXX}.XXH.m H G z x x c x x c C C C F H m.H.Y.oX6X7Xb.qXqX",
"qXqXqXqXqXqXqXqXqXqXqXqXqXqXqXqXZ v.}.!.XXXXXXV.J 2.J H.$X$XoXOX%X$X2X%X=X7X7X7X7X7X7X7X7X#Xb qXqX",
"qXqXqXqXqXqXqXqXqXqXqXqXqXqXqXqXA XXXX!.!.}.b.<.}. X X|.4XY.b.B.V.>X^.E.E.~.8X8X7X7X7X7X7Xv.qXqXqX",
"qXqXqXqXqXqXqXqXqXqXqXqXqXZ < Z Q.XXY.}.Y.H b.5X|.4X7X3X}.N.2X7XK.C.~.8X7X~.*X7X7X7X7X7XU., qXqXqX",
"qXqXqXqXqXqXqXqXqXqXqXqXA.W.A.v.XXXXXXU.G H.7X4X X7X8X].D.k.[.8XD.F G.:X7X*X^.7X7X7X7XOX< qXqXqXqX",
"qXqXqXqXqXqXqXqXqXqXqXL.A.J C.V.}.!.H.m U.7X7X7X|.3X].(..XM.c./.2.W.E.G.=XE.*X7X7X7XY.< qXqXqXqXqX",
"qXqXqXqXqXqXqXqXqXm.+XQ.Y d n.Y.XXB.< # G oX7X7X8X|.'.;X7X%Xz.2.).7X=XR.~.*X7X7X8XB.> qXqXqXqXqXqX",
"qXqXqXqXqXqXqXB W.,X`.a p V b G G > qXqXqX< B.#X7X7X[._.<X1X_.'.(.>X;X).7X7X8XU.M qXqXqXqXqXqXqXqX",
"qXqXqXqXqXH C.@X0X+Xs V H Z.L.l.L.B qXqXqXqXqXb v.T.$X[._._.<X7X;X(.(.:XOXV.N @ qXqXqXqXqXqXqXqXqX",
"qXqXqXqX@X-X,X,X@X>.P V Q.P.`.I.!.K.qXqXqXqXqXqXqX@ b S b.B.H.H.H.b.H m , qXqXqXqXqXqXqXqXqXqXqXqX",
"qXqXqXqX9X9X,X=X:.! T n.Z.-XF.@XK.@XqXqXqXqXqXqXqXqXqXm J.V.B.B.B.H.Y.m qXqXqXqXqXqXqXqXqXqXqXqXqX",
"qXqXqX,X,X9X-X:.R Q ! S.K.@XP.`.m.C.qXqXqXqXqXqXqXqXqXG 7X7X7X7X7X7X7XZ qXqXqXqXqXqXqXqXqXqXqXqXqX",
"qXqXqX,X9X-X,.I Q W K ,.Q.Q.P.L.qXqXqXqXqXqXqXqXqXqXqXA 7X7X7X7X7X7X7XZ qXqXqXqXqXqXqXqXqXqXqXqXqX",
"qXqXqX0X-X1.P W W Y B K.!.W.S.M.qXqXqXqXqXqXqXqXqXqXqXA 7X8X7X7X7X7X7XZ qXqXqXqXqXqXqXqXqXqXqXqXqX",
"qXqXqXQ.1.P Q E p S L.>XW.P.B qXqXqXqXqXqXqXqXqXqXqXqXA 7X8X8X7X7X7X8XZ qXqXqXqXqXqXqXqXqXqXqXqXqX",
"qXqXqX- K ~ R d H @X0X,XN.D qXqXqXqXqXqXqXqXqXqXqXqXqXA 8X7X7X8X7X7X8XZ qXqXqXqXqXqXqXqXqXqXqXqXqX",
"qXqXqXK ~ P 3 qXD l.K.F.qXqXqXqXqXqXqXqXqXqXqXqXqXqXqXA 7X7X7X7X7X7X7XZ qXqXqXqXqXqXqXqXqXqXqXqXqX",
"qXqXL W K qXqXqXqXqXqXqXqXqXqXqXqXqXqXqXqXqXqXqXqXqXqXA 7X7X7X7X7X7X6XZ qXqXqXqXqXqXqXqXqXqXqXqXqX",
"qX6 E 6 qXqXqXqXqXqXqXqXqXqXqXqXqXqXqXqXqXqXqXqXqXqXqXA 7X7X7X7X8X7X7XZ qXqXqXqXqXqXqXqXqXqXqXqXqX",
"qX2 2 qXqXqXqXqXqXqXqXqXqXqXqXqXqXqXqXqXqXqXqXqXqXqXqXA 7X7X7X7X7X7X7XZ qXqXqXqXqXqXqXqXqXqXqXqXqX",
"qXqXqXqXqXqXqXqXqXqXqXqXqXqXqXqXqXqXqXqXqXqXqXqXqXqXqXZ 7X7X7X7X7X7X7Xm qXqXqXqXqXqXqXqXqXqXqXqXqX",
"qXqXqXqXqXqXqXqXqXqXqXqXqXqXqXqXqXqXqXqXqXqXqXqXqXqXqXqXqXqXqXqXqXqXqXqXqXqXqXqXqXqXqXqXqXqXqXqXqX"
};
