/* XPM */
static char *parisian_paving_pattern[] = {
/* columns rows colors chars-per-pixel */
"49 49 2 1 ",
"  c #F0F0F0",
". c #E0E0E0",
/* pixels */
"                                                 ",
"  ......  ......  ......  ......  ......  ...... ",
"  ......  ......  ......  ......  ......  ...... ",
"  ......  ......  ......  ......  ......  ...... ",
"                                                 ",
"                                                 ",
"......  ......  ......  ......  ......  ......   ",
"......  ......  ......  ......  ......  ......   ",
"......  ......  ......  ......  ......  ......   ",
"                                                 ",
"                                                 ",
"  ......  ......  ......  ......  ......  ...... ",
"  ......  ......  ......  ......  ......  ...... ",
"  ......  ......  ......  ......  ......  ...... ",
"                                                 ",
"  ......  ......  ......  ......  ......  ...... ",
"  ......  ......  ......  ......  ......  ...... ",
"  ......  ......  ......  ......  ......  ...... ",
"                                                 ",
"                                                 ",
"......  ......  ......  ......  ......  ......   ",
"......  ......  ......  ......  ......  ......   ",
"......  ......  ......  ......  ......  ......   ",
"                                                 ",
"                                                 ",
"  ......  ......  ......  ......  ......  ...... ",
"  ......  ......  ......  ......  ......  ...... ",
"  ......  ......  ......  ......  ......  ...... ",
"                                                 ",
"  ......  ......  ......  ......  ......  ...... ",
"  ......  ......  ......  ......  ......  ...... ",
"  ......  ......  ......  ......  ......  ...... ",
"                                                 ",
"                                                 ",
"......  ......  ......  ......  ......  ......   ",
"......  ......  ......  ......  ......  ......   ",
"......  ......  ......  ......  ......  ......   ",
"                                                 ",
"                                                 ",
"  ......  ......  ......  ......  ......  ...... ",
"  ......  ......  ......  ......  ......  ...... ",
"  ......  ......  ......  ......  ......  ...... ",
"                                                 ",
"  ......  ......  ......  ......  ......  ...... ",
"  ......  ......  ......  ......  ......  ...... ",
"  ......  ......  ......  ......  ......  ...... ",
"                                                 ",
"                                                 ",
"......  ......  ......  ......  ......  ......   ",
"......  ......  ......  ......  ......  ......   ",
"......  ......  ......  ......  ......  ......   ",
"                                                 ",
"                                                 ",
"  ......  ......  ......  ......  ......  ...... ",
"  ......  ......  ......  ......  ......  ...... ",
"  ......  ......  ......  ......  ......  ...... ",
"                                                 ",
};