/* XPM */
static char *start[] = {
/* columns rows colors chars-per-pixel */
"49 49 85 1 ",
"  c black",
". c #010101",
"X c #020202",
"o c gray1",
"O c #040404",
"+ c gray2",
"@ c #060606",
"# c #070707",
"$ c gray3",
"% c #0B0B0B",
"& c #0E0E0E",
"* c #101010",
"= c gray7",
"- c gray8",
"; c #151515",
": c #161616",
"> c #1B1B1B",
", c gray11",
"< c #222222",
"1 c #232323",
"2 c #282828",
"3 c gray16",
"4 c #2A2A2A",
"5 c #2D2D2D",
"6 c gray20",
"7 c #343434",
"8 c #353535",
"9 c #373737",
"0 c gray22",
"q c gray23",
"w c #3C3C3C",
"e c #414141",
"r c gray26",
"t c gray28",
"y c #494949",
"u c gray30",
"i c gray32",
"p c #585858",
"a c gray35",
"s c #5B5B5B",
"d c #5D5D5D",
"f c #626262",
"g c gray39",
"h c #6D6D6D",
"j c #797979",
"k c #7B7B7B",
"l c #808080",
"z c #838383",
"x c #848484",
"c c #888888",
"v c gray55",
"b c #929292",
"n c gray62",
"m c gray63",
"M c #A5A5A5",
"N c gray67",
"B c #B4B4B4",
"V c gray71",
"C c #B6B6B6",
"Z c gray73",
"A c #BBBBBB",
"S c #C0C0C0",
"D c gray77",
"F c #C6C6C6",
"G c #C8C8C8",
"H c gray81",
"J c gray83",
"K c gray84",
"L c #D8D8D8",
"P c #DADADA",
"I c gainsboro",
"U c #E6E6E6",
"Y c gray91",
"T c #E9E9E9",
"R c #EAEAEA",
"E c gray93",
"W c #F3F3F3",
"Q c #F6F6F6",
"! c #F8F8F8",
"~ c gray98",
"^ c #FBFBFB",
"/ c gray99",
"( c #FEFEFE",
") c white",
"_ c #B2D8B2",
/* pixels */
"_________________________________________________",
"_________________________________________________",
"_________________________________________________",
"________________%-#______________________________",
"______________&fVGMtO____________________________",
"_____________@l!)))Yi____________________________",
"_____________0T)(((/S;___________________________",
"_____________g((((QcF7___________________________",
"_____________d/(((^KRu___________________________",
"_____________4P)((()Lw______1q3#_________________",
"_____________ dU)))Yi_____%hJEIz:________________",
"______________Oqxncr+_____sW)()/k________________",
"________________   ______$N)((^AC,_______________",
"________________  _______&Z)((~BH8_______________",
"_______________   ________v)((()L6_______________",
"_______________   ________5D())Ea________________",
"_______________   _________2jmbu$________________",
"_______________   ___________  __________________",
"_______________   ___________  __________________",
"_______________     _________  __________________",
"______________         =__  _  __________________",
"______________   __  .89*       _________________",
"______________   ____Xp<        _________________",
"______________   _________       ________________",
"______________   _________          _____________",
"______________   _________          @e___________",
"_____________    __________         oy>__________",
"_____________    _________        _______________",
"_____________     _______          ______________",
"_____________     ______   ______   _____________",
"____________   _  _____  __________      ________",
"____________   _   ___  ____________      _______",
"____________  __   ___  ____________      _______",
"___           ___  __  ______________     _______",
"__            ___   _  ______________  _   ______",
"__   ____________   _  ______  ______  _   ______",
"__  ____________   __  ______   _____  _   ______",
"__  ____________   __  ______  ______  __  ______",
"_______________   ___  ______________  __   _____",
"_______________   ___   _____________  __     ___",
"______________   _____  ____________  ____    ___",
"______________   _____   __________   ___________",
"______________     ____   ________   ____________",
"______________    ______            _____________",
"__________________________        _______________",
"_________________________________________________",
"_________________________________________________",
"_________________________________________________",
"_________________________________________________"
};
